# xmcd
#
# Track frame offsets: 
#        150
#        12502
#        22222
#        37735
#        49140
#        60990
#        74340
#        88275
#        106115
#        118747
#        137600
#        151837
#        163570
#        176527
#        185717
#        202165
#        213607
#        223497
#
# Disc length: 3190 seconds
#
# Revision: 0
# Processed by: cddbd v1.5.2PL0 Copyright (c) Steve Scherf et al.
# Submitted via: ExactAudioCopy v1.0b3
#
DISCID=0d0c7412
DTITLE=Various Artist - From The Heart, 36 Great Country Love Songs Disc 2
DYEAR=1999
DGENRE=Country
TTITLE0=Patsy Cline - Crazy
TTITLE1=Patsy Cline - True Love
TTITLE2=Patty Loveless - Can't Stop Myself From Loving You
TTITLE3=Patty Loveless - Timber, I'm Falling In Love
TTITLE4=John Anderson - Just For You
TTITLE5=John Conlee - Baby, You're Something
TTITLE6=Lee Greenwood - Don't Underestimate My Love For You
TTITLE7=Lee Greenwood - Love Will Find It's Way To You
TTITLE8=Mark Chesnutt - Your Love Is A Miracle
TTITLE9=Mark Chesnutt - Almost Goodbye
TTITLE10=Mark Collie - Born To Love You
TTITLE11=Conway Twitty And Loretta Lynn - Lovin' What Your Lovin' Does
TTITLE11=To Me
TTITLE12=Conway Twitty And Loretta Lynn - It's True Love
TTITLE13=Crystal Gayle - Sparklin' Look Of Love
TTITLE14=Don Williams - Love Is On A Roll
TTITLE15=Gene Watson - This Torch I Carry For You
TTITLE16=Gene Watson - Speak Softly (You're Talking To My Heart)
TTITLE17=Jim Ed Brown - The Love She Found In Me
EXTD=
EXTT0=
EXTT1=
EXTT2=
EXTT3=
EXTT4=
EXTT5=
EXTT6=
EXTT7=
EXTT8=
EXTT9=
EXTT10=
EXTT11=
EXTT12=
EXTT13=
EXTT14=
EXTT15=
EXTT16=
EXTT17=
PLAYORDER=
